<mxfile host="app.diagrams.net" modified="2021-02-12T20:16:51.239Z" agent="5.0 (Macintosh; Intel Mac OS X 10_15_6) AppleWebKit/605.1.15 (KHTML, like Gecko) Version/14.0.3 Safari/605.1.15" etag="tO25NHNLkE7HM38axmRp" version="14.3.1" type="github">
  <diagram id="eLkn7xKMsyS7eprZn22a" name="Page-1">
    <mxGraphModel dx="1426" dy="892" grid="1" gridSize="10" guides="1" tooltips="1" connect="1" arrows="1" fold="1" page="1" pageScale="1" pageWidth="1169" pageHeight="827" math="0" shadow="0">
      <root>
        <mxCell id="0" />
        <mxCell id="1" parent="0" />
        <mxCell id="46Lw_xT1vmuB0krrrL6Z-1" value="Interaction Diagram" style="text;html=1;align=left;verticalAlign=middle;resizable=0;points=[];autosize=1;fontSize=24;fontStyle=1;fontFamily=Raleway;fontSource=https%3A%2F%2Ffonts.googleapis.com%2Fcss%3Ffamily%3DRaleway;" vertex="1" parent="1">
          <mxGeometry x="10" y="10" width="250" height="30" as="geometry" />
        </mxCell>
        <mxCell id="46Lw_xT1vmuB0krrrL6Z-40" value="" style="group" vertex="1" connectable="0" parent="1">
          <mxGeometry x="960" y="680" width="120" height="80" as="geometry" />
        </mxCell>
        <mxCell id="46Lw_xT1vmuB0krrrL6Z-15" value="bingMaps" style="whiteSpace=wrap;html=1;fontSize=20;align=center;fontStyle=1;fontColor=#FFFFFF;fillColor=#000000;" vertex="1" parent="46Lw_xT1vmuB0krrrL6Z-40">
          <mxGeometry width="120" height="40" as="geometry" />
        </mxCell>
        <mxCell id="46Lw_xT1vmuB0krrrL6Z-26" value="&lt;span style=&quot;font-weight: normal ; font-size: 12px&quot;&gt;&lt;font data-font-src=&quot;https://fonts.googleapis.com/css?family=Inconsolata&quot; face=&quot;Inconsolata&quot; style=&quot;font-size: 12px&quot;&gt;fetchTrip()&lt;/font&gt;&lt;/span&gt;" style="whiteSpace=wrap;html=1;fontSize=12;align=center;fontStyle=1;" vertex="1" parent="46Lw_xT1vmuB0krrrL6Z-40">
          <mxGeometry y="40" width="120" height="40" as="geometry" />
        </mxCell>
        <mxCell id="46Lw_xT1vmuB0krrrL6Z-43" value="" style="group" vertex="1" connectable="0" parent="1">
          <mxGeometry x="40" y="160" width="120" height="80" as="geometry" />
        </mxCell>
        <mxCell id="46Lw_xT1vmuB0krrrL6Z-2" value="main" style="whiteSpace=wrap;html=1;fontSize=20;align=center;fontStyle=1;fillColor=#000000;fontColor=#FFFFFF;" vertex="1" parent="46Lw_xT1vmuB0krrrL6Z-43">
          <mxGeometry width="120" height="40" as="geometry" />
        </mxCell>
        <mxCell id="46Lw_xT1vmuB0krrrL6Z-3" value="&lt;span style=&quot;font-weight: normal; font-size: 12px;&quot;&gt;&lt;font data-font-src=&quot;https://fonts.googleapis.com/css?family=Inconsolata&quot; face=&quot;Inconsolata&quot; style=&quot;font-size: 12px;&quot;&gt;main()&lt;/font&gt;&lt;/span&gt;" style="whiteSpace=wrap;html=1;fontSize=12;align=center;fontStyle=1;" vertex="1" parent="46Lw_xT1vmuB0krrrL6Z-43">
          <mxGeometry y="40" width="120" height="40" as="geometry" />
        </mxCell>
        <mxCell id="46Lw_xT1vmuB0krrrL6Z-49" value="" style="group" vertex="1" connectable="0" parent="1">
          <mxGeometry x="40" y="320" width="120" height="80" as="geometry" />
        </mxCell>
        <mxCell id="46Lw_xT1vmuB0krrrL6Z-45" value="router" style="whiteSpace=wrap;html=1;fontSize=20;align=center;fontStyle=1;fillColor=#000000;fontColor=#FFFFFF;" vertex="1" parent="46Lw_xT1vmuB0krrrL6Z-49">
          <mxGeometry width="120" height="40" as="geometry" />
        </mxCell>
        <mxCell id="46Lw_xT1vmuB0krrrL6Z-46" value="&lt;span style=&quot;font-weight: normal ; font-size: 12px&quot;&gt;&lt;font data-font-src=&quot;https://fonts.googleapis.com/css?family=Inconsolata&quot; face=&quot;Inconsolata&quot; style=&quot;font-size: 12px&quot;&gt;render()&lt;/font&gt;&lt;/span&gt;" style="whiteSpace=wrap;html=1;fontSize=12;align=center;fontStyle=1;" vertex="1" parent="46Lw_xT1vmuB0krrrL6Z-49">
          <mxGeometry y="40" width="120" height="40" as="geometry" />
        </mxCell>
        <mxCell id="46Lw_xT1vmuB0krrrL6Z-50" style="edgeStyle=orthogonalEdgeStyle;rounded=0;orthogonalLoop=1;jettySize=auto;html=1;" edge="1" parent="1" source="46Lw_xT1vmuB0krrrL6Z-3" target="46Lw_xT1vmuB0krrrL6Z-45">
          <mxGeometry relative="1" as="geometry" />
        </mxCell>
        <mxCell id="46Lw_xT1vmuB0krrrL6Z-59" value="" style="group" vertex="1" connectable="0" parent="1">
          <mxGeometry x="240" y="160" width="160" height="80" as="geometry" />
        </mxCell>
        <mxCell id="46Lw_xT1vmuB0krrrL6Z-52" value="routes" style="whiteSpace=wrap;html=1;fontSize=20;align=center;fontStyle=1;fontColor=#FFFFFF;fillColor=#000000;" vertex="1" parent="46Lw_xT1vmuB0krrrL6Z-59">
          <mxGeometry width="160" height="40" as="geometry" />
        </mxCell>
        <mxCell id="46Lw_xT1vmuB0krrrL6Z-53" value="&lt;span style=&quot;font-weight: normal ; font-size: 12px&quot;&gt;&lt;font data-font-src=&quot;https://fonts.googleapis.com/css?family=Inconsolata&quot; face=&quot;Inconsolata&quot; style=&quot;font-size: 12px&quot;&gt;index()&lt;/font&gt;&lt;/span&gt;" style="whiteSpace=wrap;html=1;fontSize=12;align=center;fontStyle=1;" vertex="1" parent="46Lw_xT1vmuB0krrrL6Z-59">
          <mxGeometry y="40" width="160" height="40" as="geometry" />
        </mxCell>
        <mxCell id="46Lw_xT1vmuB0krrrL6Z-63" value="index" style="edgeStyle=orthogonalEdgeStyle;rounded=0;orthogonalLoop=1;jettySize=auto;html=1;entryX=0.5;entryY=1;entryDx=0;entryDy=0;" edge="1" parent="1" source="46Lw_xT1vmuB0krrrL6Z-61" target="46Lw_xT1vmuB0krrrL6Z-53">
          <mxGeometry x="-0.2" relative="1" as="geometry">
            <mxPoint as="offset" />
          </mxGeometry>
        </mxCell>
        <mxCell id="46Lw_xT1vmuB0krrrL6Z-76" style="edgeStyle=orthogonalEdgeStyle;rounded=0;orthogonalLoop=1;jettySize=auto;html=1;" edge="1" parent="1" source="46Lw_xT1vmuB0krrrL6Z-61" target="46Lw_xT1vmuB0krrrL6Z-68">
          <mxGeometry relative="1" as="geometry" />
        </mxCell>
        <mxCell id="46Lw_xT1vmuB0krrrL6Z-77" value="All other routes" style="edgeLabel;html=1;align=center;verticalAlign=middle;resizable=0;points=[];" vertex="1" connectable="0" parent="46Lw_xT1vmuB0krrrL6Z-76">
          <mxGeometry x="-0.1552" y="-1" relative="1" as="geometry">
            <mxPoint as="offset" />
          </mxGeometry>
        </mxCell>
        <mxCell id="46Lw_xT1vmuB0krrrL6Z-81" style="edgeStyle=orthogonalEdgeStyle;rounded=0;orthogonalLoop=1;jettySize=auto;html=1;" edge="1" parent="1" source="46Lw_xT1vmuB0krrrL6Z-61" target="46Lw_xT1vmuB0krrrL6Z-78">
          <mxGeometry relative="1" as="geometry" />
        </mxCell>
        <mxCell id="46Lw_xT1vmuB0krrrL6Z-84" value="access_token" style="edgeLabel;html=1;align=center;verticalAlign=middle;resizable=0;points=[];" vertex="1" connectable="0" parent="46Lw_xT1vmuB0krrrL6Z-81">
          <mxGeometry y="-1" relative="1" as="geometry">
            <mxPoint x="-0.09999999999999964" y="-1" as="offset" />
          </mxGeometry>
        </mxCell>
        <mxCell id="46Lw_xT1vmuB0krrrL6Z-61" value="Which&lt;br&gt;route?" style="rhombus;whiteSpace=wrap;html=1;" vertex="1" parent="1">
          <mxGeometry x="260" y="320" width="120" height="120" as="geometry" />
        </mxCell>
        <mxCell id="46Lw_xT1vmuB0krrrL6Z-62" style="edgeStyle=orthogonalEdgeStyle;rounded=0;orthogonalLoop=1;jettySize=auto;html=1;entryX=0;entryY=0.5;entryDx=0;entryDy=0;" edge="1" parent="1" source="46Lw_xT1vmuB0krrrL6Z-46" target="46Lw_xT1vmuB0krrrL6Z-61">
          <mxGeometry relative="1" as="geometry" />
        </mxCell>
        <mxCell id="46Lw_xT1vmuB0krrrL6Z-75" value="" style="group" vertex="1" connectable="0" parent="1">
          <mxGeometry x="240" y="520" width="160" height="80" as="geometry" />
        </mxCell>
        <mxCell id="46Lw_xT1vmuB0krrrL6Z-67" value="&lt;span style=&quot;font-weight: normal ; font-size: 12px&quot;&gt;&lt;font data-font-src=&quot;https://fonts.googleapis.com/css?family=Inconsolata&quot; face=&quot;Inconsolata&quot; style=&quot;font-size: 12px&quot;&gt;authenticationCheck()&lt;br&gt;&lt;/font&gt;&lt;/span&gt;" style="whiteSpace=wrap;html=1;fontSize=12;align=center;fontStyle=1;" vertex="1" parent="46Lw_xT1vmuB0krrrL6Z-75">
          <mxGeometry y="40" width="160" height="40" as="geometry" />
        </mxCell>
        <mxCell id="46Lw_xT1vmuB0krrrL6Z-68" value="spotify" style="whiteSpace=wrap;html=1;fontSize=20;align=center;fontStyle=1;fontColor=#FFFFFF;fillColor=#000000;" vertex="1" parent="46Lw_xT1vmuB0krrrL6Z-75">
          <mxGeometry width="160" height="40" as="geometry" />
        </mxCell>
        <mxCell id="46Lw_xT1vmuB0krrrL6Z-80" value="" style="group" vertex="1" connectable="0" parent="1">
          <mxGeometry x="480" y="320" width="160" height="80" as="geometry" />
        </mxCell>
        <mxCell id="46Lw_xT1vmuB0krrrL6Z-78" value="&lt;span style=&quot;font-weight: normal ; font-size: 12px&quot;&gt;&lt;font data-font-src=&quot;https://fonts.googleapis.com/css?family=Inconsolata&quot; face=&quot;Inconsolata&quot; style=&quot;font-size: 12px&quot;&gt;accessToken()&lt;/font&gt;&lt;/span&gt;" style="whiteSpace=wrap;html=1;fontSize=12;align=center;fontStyle=1;" vertex="1" parent="46Lw_xT1vmuB0krrrL6Z-80">
          <mxGeometry y="40" width="160" height="40" as="geometry" />
        </mxCell>
        <mxCell id="46Lw_xT1vmuB0krrrL6Z-79" value="routes" style="whiteSpace=wrap;html=1;fontSize=20;align=center;fontStyle=1;fontColor=#FFFFFF;fillColor=#000000;" vertex="1" parent="46Lw_xT1vmuB0krrrL6Z-80">
          <mxGeometry width="160" height="40" as="geometry" />
        </mxCell>
        <mxCell id="46Lw_xT1vmuB0krrrL6Z-96" value="" style="group" vertex="1" connectable="0" parent="1">
          <mxGeometry x="40" y="520" width="120" height="80" as="geometry" />
        </mxCell>
        <mxCell id="46Lw_xT1vmuB0krrrL6Z-92" value="router" style="whiteSpace=wrap;html=1;fontSize=20;align=center;fontStyle=1;fillColor=#000000;fontColor=#FFFFFF;" vertex="1" parent="46Lw_xT1vmuB0krrrL6Z-96">
          <mxGeometry width="120" height="40" as="geometry" />
        </mxCell>
        <mxCell id="46Lw_xT1vmuB0krrrL6Z-95" value="&lt;font face=&quot;Inconsolata&quot;&gt;&lt;span style=&quot;font-weight: normal&quot;&gt;navigate()&lt;/span&gt;&lt;/font&gt;" style="whiteSpace=wrap;html=1;fontSize=12;align=center;fontStyle=1;" vertex="1" parent="46Lw_xT1vmuB0krrrL6Z-96">
          <mxGeometry y="40" width="120" height="40" as="geometry" />
        </mxCell>
        <mxCell id="46Lw_xT1vmuB0krrrL6Z-99" style="edgeStyle=orthogonalEdgeStyle;rounded=0;orthogonalLoop=1;jettySize=auto;html=1;entryX=0.5;entryY=1;entryDx=0;entryDy=0;" edge="1" parent="1" source="46Lw_xT1vmuB0krrrL6Z-92" target="46Lw_xT1vmuB0krrrL6Z-46">
          <mxGeometry relative="1" as="geometry" />
        </mxCell>
        <mxCell id="46Lw_xT1vmuB0krrrL6Z-101" value="Back to index" style="edgeLabel;html=1;align=center;verticalAlign=middle;resizable=0;points=[];" vertex="1" connectable="0" parent="46Lw_xT1vmuB0krrrL6Z-99">
          <mxGeometry x="-0.2583" y="-1" relative="1" as="geometry">
            <mxPoint x="-1" y="-10.33" as="offset" />
          </mxGeometry>
        </mxCell>
        <mxCell id="46Lw_xT1vmuB0krrrL6Z-111" value="" style="group" vertex="1" connectable="0" parent="1">
          <mxGeometry x="480" y="160" width="160" height="80" as="geometry" />
        </mxCell>
        <mxCell id="46Lw_xT1vmuB0krrrL6Z-104" value="spotify" style="whiteSpace=wrap;html=1;fontSize=20;align=center;fontStyle=1;fontColor=#FFFFFF;fillColor=#000000;" vertex="1" parent="46Lw_xT1vmuB0krrrL6Z-111">
          <mxGeometry width="160" height="40" as="geometry" />
        </mxCell>
        <mxCell id="46Lw_xT1vmuB0krrrL6Z-106" value="&lt;span style=&quot;font-weight: normal ; font-size: 12px&quot;&gt;&lt;font data-font-src=&quot;https://fonts.googleapis.com/css?family=Inconsolata&quot; face=&quot;Inconsolata&quot; style=&quot;font-size: 12px&quot;&gt;saveToken()&lt;/font&gt;&lt;/span&gt;" style="whiteSpace=wrap;html=1;fontSize=12;align=center;fontStyle=1;" vertex="1" parent="46Lw_xT1vmuB0krrrL6Z-111">
          <mxGeometry y="40" width="160" height="40" as="geometry" />
        </mxCell>
        <mxCell id="46Lw_xT1vmuB0krrrL6Z-112" style="edgeStyle=orthogonalEdgeStyle;rounded=0;orthogonalLoop=1;jettySize=auto;html=1;" edge="1" parent="1" source="46Lw_xT1vmuB0krrrL6Z-78" target="46Lw_xT1vmuB0krrrL6Z-106">
          <mxGeometry relative="1" as="geometry" />
        </mxCell>
        <mxCell id="46Lw_xT1vmuB0krrrL6Z-128" value="Saves login token given by Spotify" style="edgeLabel;html=1;align=center;verticalAlign=middle;resizable=0;points=[];" vertex="1" connectable="0" parent="46Lw_xT1vmuB0krrrL6Z-112">
          <mxGeometry x="0.19" y="-2" relative="1" as="geometry">
            <mxPoint x="-2" y="-8.4" as="offset" />
          </mxGeometry>
        </mxCell>
        <mxCell id="46Lw_xT1vmuB0krrrL6Z-116" style="edgeStyle=orthogonalEdgeStyle;rounded=0;orthogonalLoop=1;jettySize=auto;html=1;entryX=0.5;entryY=1;entryDx=0;entryDy=0;" edge="1" parent="1" source="46Lw_xT1vmuB0krrrL6Z-113" target="46Lw_xT1vmuB0krrrL6Z-95">
          <mxGeometry relative="1" as="geometry" />
        </mxCell>
        <mxCell id="46Lw_xT1vmuB0krrrL6Z-118" value="No" style="edgeLabel;html=1;align=center;verticalAlign=middle;resizable=0;points=[];" vertex="1" connectable="0" parent="46Lw_xT1vmuB0krrrL6Z-116">
          <mxGeometry x="-0.4725" y="-2" relative="1" as="geometry">
            <mxPoint y="2" as="offset" />
          </mxGeometry>
        </mxCell>
        <mxCell id="46Lw_xT1vmuB0krrrL6Z-117" style="edgeStyle=orthogonalEdgeStyle;rounded=0;orthogonalLoop=1;jettySize=auto;html=1;" edge="1" parent="1" source="46Lw_xT1vmuB0krrrL6Z-113" target="46Lw_xT1vmuB0krrrL6Z-33">
          <mxGeometry relative="1" as="geometry" />
        </mxCell>
        <mxCell id="46Lw_xT1vmuB0krrrL6Z-120" style="edgeStyle=orthogonalEdgeStyle;rounded=0;orthogonalLoop=1;jettySize=auto;html=1;entryX=0;entryY=0.5;entryDx=0;entryDy=0;" edge="1" parent="1" source="46Lw_xT1vmuB0krrrL6Z-113" target="46Lw_xT1vmuB0krrrL6Z-35">
          <mxGeometry relative="1" as="geometry">
            <Array as="points">
              <mxPoint x="420" y="740" />
              <mxPoint x="420" y="780" />
            </Array>
          </mxGeometry>
        </mxCell>
        <mxCell id="46Lw_xT1vmuB0krrrL6Z-121" style="edgeStyle=orthogonalEdgeStyle;rounded=0;orthogonalLoop=1;jettySize=auto;html=1;" edge="1" parent="1" source="46Lw_xT1vmuB0krrrL6Z-113" target="46Lw_xT1vmuB0krrrL6Z-38">
          <mxGeometry relative="1" as="geometry">
            <Array as="points">
              <mxPoint x="420" y="740" />
              <mxPoint x="420" y="820" />
            </Array>
          </mxGeometry>
        </mxCell>
        <mxCell id="46Lw_xT1vmuB0krrrL6Z-156" style="edgeStyle=orthogonalEdgeStyle;rounded=0;orthogonalLoop=1;jettySize=auto;html=1;entryX=0;entryY=0.5;entryDx=0;entryDy=0;strokeColor=#000000;" edge="1" parent="1" source="46Lw_xT1vmuB0krrrL6Z-113" target="46Lw_xT1vmuB0krrrL6Z-155">
          <mxGeometry relative="1" as="geometry">
            <Array as="points">
              <mxPoint x="420" y="740" />
              <mxPoint x="420" y="860" />
            </Array>
          </mxGeometry>
        </mxCell>
        <mxCell id="46Lw_xT1vmuB0krrrL6Z-157" value="Yes" style="edgeLabel;html=1;align=center;verticalAlign=middle;resizable=0;points=[];" vertex="1" connectable="0" parent="46Lw_xT1vmuB0krrrL6Z-156">
          <mxGeometry x="-0.6863" y="-1" relative="1" as="geometry">
            <mxPoint x="5.58" y="-1" as="offset" />
          </mxGeometry>
        </mxCell>
        <mxCell id="46Lw_xT1vmuB0krrrL6Z-113" value="Authenticated?" style="rhombus;whiteSpace=wrap;html=1;" vertex="1" parent="1">
          <mxGeometry x="260" y="680" width="120" height="120" as="geometry" />
        </mxCell>
        <mxCell id="46Lw_xT1vmuB0krrrL6Z-114" style="edgeStyle=orthogonalEdgeStyle;rounded=0;orthogonalLoop=1;jettySize=auto;html=1;entryX=0.5;entryY=0;entryDx=0;entryDy=0;" edge="1" parent="1" source="46Lw_xT1vmuB0krrrL6Z-67" target="46Lw_xT1vmuB0krrrL6Z-113">
          <mxGeometry relative="1" as="geometry" />
        </mxCell>
        <mxCell id="46Lw_xT1vmuB0krrrL6Z-115" value="" style="group" vertex="1" connectable="0" parent="1">
          <mxGeometry x="480" y="680" width="160" height="160" as="geometry" />
        </mxCell>
        <mxCell id="46Lw_xT1vmuB0krrrL6Z-16" value="routes" style="whiteSpace=wrap;html=1;fontSize=20;align=center;fontStyle=1;fontColor=#FFFFFF;fillColor=#000000;" vertex="1" parent="46Lw_xT1vmuB0krrrL6Z-115">
          <mxGeometry width="160" height="40" as="geometry" />
        </mxCell>
        <mxCell id="46Lw_xT1vmuB0krrrL6Z-33" value="&lt;span style=&quot;font-weight: normal ; font-size: 12px&quot;&gt;&lt;font data-font-src=&quot;https://fonts.googleapis.com/css?family=Inconsolata&quot; face=&quot;Inconsolata&quot; style=&quot;font-size: 12px&quot;&gt;tripDuration()&lt;/font&gt;&lt;/span&gt;" style="whiteSpace=wrap;html=1;fontSize=12;align=center;fontStyle=1;" vertex="1" parent="46Lw_xT1vmuB0krrrL6Z-115">
          <mxGeometry y="40" width="160" height="40" as="geometry" />
        </mxCell>
        <mxCell id="46Lw_xT1vmuB0krrrL6Z-35" value="&lt;font face=&quot;Inconsolata&quot;&gt;&lt;span style=&quot;font-weight: normal&quot;&gt;listFavouriteTracks()&lt;/span&gt;&lt;/font&gt;" style="whiteSpace=wrap;html=1;fontSize=12;align=center;fontStyle=1;" vertex="1" parent="46Lw_xT1vmuB0krrrL6Z-115">
          <mxGeometry y="80" width="160" height="40" as="geometry" />
        </mxCell>
        <mxCell id="46Lw_xT1vmuB0krrrL6Z-38" value="&lt;font face=&quot;Inconsolata&quot;&gt;&lt;span style=&quot;font-weight: normal&quot;&gt;generate()&lt;/span&gt;&lt;/font&gt;" style="whiteSpace=wrap;html=1;fontSize=12;align=center;fontStyle=1;" vertex="1" parent="46Lw_xT1vmuB0krrrL6Z-115">
          <mxGeometry y="120" width="160" height="40" as="geometry" />
        </mxCell>
        <mxCell id="46Lw_xT1vmuB0krrrL6Z-123" value="" style="group" vertex="1" connectable="0" parent="1">
          <mxGeometry x="720" y="160" width="120" height="80" as="geometry" />
        </mxCell>
        <mxCell id="46Lw_xT1vmuB0krrrL6Z-124" value="router" style="whiteSpace=wrap;html=1;fontSize=20;align=center;fontStyle=1;fontColor=#FFFFFF;fillColor=#808080;strokeColor=#808080;dashed=1;" vertex="1" parent="46Lw_xT1vmuB0krrrL6Z-123">
          <mxGeometry width="120" height="40" as="geometry" />
        </mxCell>
        <mxCell id="46Lw_xT1vmuB0krrrL6Z-125" value="&lt;span style=&quot;font-weight: normal ; font-size: 12px&quot;&gt;&lt;font data-font-src=&quot;https://fonts.googleapis.com/css?family=Inconsolata&quot; face=&quot;Inconsolata&quot; style=&quot;font-size: 12px&quot; color=&quot;#808080&quot;&gt;navigate()&lt;/font&gt;&lt;/span&gt;" style="whiteSpace=wrap;html=1;fontSize=12;align=center;fontStyle=1;dashed=1;strokeColor=#808080;" vertex="1" parent="46Lw_xT1vmuB0krrrL6Z-123">
          <mxGeometry y="40" width="120" height="40" as="geometry" />
        </mxCell>
        <mxCell id="46Lw_xT1vmuB0krrrL6Z-126" style="edgeStyle=orthogonalEdgeStyle;rounded=0;orthogonalLoop=1;jettySize=auto;html=1;" edge="1" parent="1" source="46Lw_xT1vmuB0krrrL6Z-106" target="46Lw_xT1vmuB0krrrL6Z-125">
          <mxGeometry relative="1" as="geometry" />
        </mxCell>
        <mxCell id="46Lw_xT1vmuB0krrrL6Z-131" value="&lt;font color=&quot;#ffffff&quot;&gt;&lt;span&gt;Go to tripDuration&lt;/span&gt;&lt;/font&gt;" style="rounded=1;whiteSpace=wrap;html=1;strokeColor=#808080;dashed=1;fillColor=#808080;" vertex="1" parent="1">
          <mxGeometry x="920" y="200" width="80" height="40" as="geometry" />
        </mxCell>
        <mxCell id="46Lw_xT1vmuB0krrrL6Z-132" style="edgeStyle=orthogonalEdgeStyle;rounded=0;orthogonalLoop=1;jettySize=auto;html=1;strokeColor=#808080;dashed=1;" edge="1" parent="1" source="46Lw_xT1vmuB0krrrL6Z-125" target="46Lw_xT1vmuB0krrrL6Z-131">
          <mxGeometry relative="1" as="geometry" />
        </mxCell>
        <mxCell id="46Lw_xT1vmuB0krrrL6Z-139" style="edgeStyle=orthogonalEdgeStyle;rounded=0;orthogonalLoop=1;jettySize=auto;html=1;strokeColor=#000000;" edge="1" parent="1" source="46Lw_xT1vmuB0krrrL6Z-137" target="46Lw_xT1vmuB0krrrL6Z-26">
          <mxGeometry relative="1" as="geometry" />
        </mxCell>
        <mxCell id="46Lw_xT1vmuB0krrrL6Z-137" value="&lt;font face=&quot;Inconsolata&quot; data-font-src=&quot;https://fonts.googleapis.com/css?family=Inconsolata&quot;&gt;User enters location data&lt;/font&gt;" style="html=1;strokeWidth=1;shape=manualInput;whiteSpace=wrap;rounded=0;size=26;arcSize=11;fillColor=#FFFFFF;" vertex="1" parent="1">
          <mxGeometry x="740" y="680" width="120" height="80" as="geometry" />
        </mxCell>
        <mxCell id="46Lw_xT1vmuB0krrrL6Z-138" style="edgeStyle=orthogonalEdgeStyle;rounded=0;orthogonalLoop=1;jettySize=auto;html=1;entryX=0;entryY=0.5;entryDx=0;entryDy=0;strokeColor=#000000;" edge="1" parent="1" source="46Lw_xT1vmuB0krrrL6Z-33" target="46Lw_xT1vmuB0krrrL6Z-137">
          <mxGeometry relative="1" as="geometry" />
        </mxCell>
        <mxCell id="46Lw_xT1vmuB0krrrL6Z-142" value="" style="group" vertex="1" connectable="0" parent="1">
          <mxGeometry x="740" y="800" width="120" height="80" as="geometry" />
        </mxCell>
        <mxCell id="46Lw_xT1vmuB0krrrL6Z-23" value="&lt;span style=&quot;font-weight: normal ; font-size: 12px&quot;&gt;&lt;font data-font-src=&quot;https://fonts.googleapis.com/css?family=Inconsolata&quot; face=&quot;Inconsolata&quot; style=&quot;font-size: 12px&quot;&gt;fetchTopTracks()&lt;br&gt;&lt;/font&gt;&lt;/span&gt;" style="whiteSpace=wrap;html=1;fontSize=12;align=center;fontStyle=1;" vertex="1" parent="46Lw_xT1vmuB0krrrL6Z-142">
          <mxGeometry y="40" width="119.99999999999999" height="40" as="geometry" />
        </mxCell>
        <mxCell id="46Lw_xT1vmuB0krrrL6Z-141" value="spotify" style="whiteSpace=wrap;html=1;fontSize=20;align=center;fontStyle=1;fontColor=#FFFFFF;fillColor=#000000;" vertex="1" parent="46Lw_xT1vmuB0krrrL6Z-142">
          <mxGeometry width="119.99999999999999" height="40" as="geometry" />
        </mxCell>
        <mxCell id="46Lw_xT1vmuB0krrrL6Z-144" style="edgeStyle=orthogonalEdgeStyle;rounded=0;orthogonalLoop=1;jettySize=auto;html=1;entryX=0;entryY=0.5;entryDx=0;entryDy=0;strokeColor=#000000;" edge="1" parent="1" source="46Lw_xT1vmuB0krrrL6Z-35" target="46Lw_xT1vmuB0krrrL6Z-23">
          <mxGeometry relative="1" as="geometry">
            <Array as="points">
              <mxPoint x="720" y="780" />
              <mxPoint x="720" y="860" />
            </Array>
          </mxGeometry>
        </mxCell>
        <mxCell id="46Lw_xT1vmuB0krrrL6Z-169" style="edgeStyle=orthogonalEdgeStyle;rounded=0;orthogonalLoop=1;jettySize=auto;html=1;strokeColor=#000000;" edge="1" parent="1" source="46Lw_xT1vmuB0krrrL6Z-146" target="46Lw_xT1vmuB0krrrL6Z-166">
          <mxGeometry relative="1" as="geometry" />
        </mxCell>
        <mxCell id="46Lw_xT1vmuB0krrrL6Z-170" value="Hit&lt;br&gt;&quot;Generate&quot;" style="edgeLabel;html=1;align=center;verticalAlign=middle;resizable=0;points=[];" vertex="1" connectable="0" parent="46Lw_xT1vmuB0krrrL6Z-169">
          <mxGeometry x="-0.1433" y="-1" relative="1" as="geometry">
            <mxPoint as="offset" />
          </mxGeometry>
        </mxCell>
        <mxCell id="46Lw_xT1vmuB0krrrL6Z-146" value="&lt;font face=&quot;Inconsolata&quot;&gt;User chooses at most 5 tracks&lt;/font&gt;" style="html=1;strokeWidth=1;shape=manualInput;whiteSpace=wrap;rounded=0;size=26;arcSize=11;fillColor=#FFFFFF;" vertex="1" parent="1">
          <mxGeometry x="960" y="800" width="120" height="80" as="geometry" />
        </mxCell>
        <mxCell id="46Lw_xT1vmuB0krrrL6Z-147" style="edgeStyle=orthogonalEdgeStyle;rounded=0;orthogonalLoop=1;jettySize=auto;html=1;strokeColor=#000000;" edge="1" parent="1" source="46Lw_xT1vmuB0krrrL6Z-23" target="46Lw_xT1vmuB0krrrL6Z-146">
          <mxGeometry relative="1" as="geometry" />
        </mxCell>
        <mxCell id="46Lw_xT1vmuB0krrrL6Z-151" style="edgeStyle=orthogonalEdgeStyle;rounded=0;orthogonalLoop=1;jettySize=auto;html=1;strokeColor=#000000;" edge="1" parent="1" source="46Lw_xT1vmuB0krrrL6Z-24" target="46Lw_xT1vmuB0krrrL6Z-150">
          <mxGeometry relative="1" as="geometry" />
        </mxCell>
        <mxCell id="46Lw_xT1vmuB0krrrL6Z-24" value="&lt;span style=&quot;font-weight: normal ; font-size: 12px&quot;&gt;&lt;font data-font-src=&quot;https://fonts.googleapis.com/css?family=Inconsolata&quot; face=&quot;Inconsolata&quot; style=&quot;font-size: 12px&quot;&gt;fetchRecommendations()&lt;br&gt;&lt;/font&gt;&lt;/span&gt;" style="whiteSpace=wrap;html=1;fontSize=12;align=center;fontStyle=1;" vertex="1" parent="1">
          <mxGeometry x="720" y="960" width="160" height="40" as="geometry" />
        </mxCell>
        <mxCell id="46Lw_xT1vmuB0krrrL6Z-148" value="spotify" style="whiteSpace=wrap;html=1;fontSize=20;align=center;fontStyle=1;fontColor=#FFFFFF;fillColor=#000000;" vertex="1" parent="1">
          <mxGeometry x="720" y="920" width="160" height="40" as="geometry" />
        </mxCell>
        <mxCell id="46Lw_xT1vmuB0krrrL6Z-149" style="edgeStyle=orthogonalEdgeStyle;rounded=0;orthogonalLoop=1;jettySize=auto;html=1;entryX=0;entryY=0.5;entryDx=0;entryDy=0;strokeColor=#000000;" edge="1" parent="1" source="46Lw_xT1vmuB0krrrL6Z-38" target="46Lw_xT1vmuB0krrrL6Z-24">
          <mxGeometry relative="1" as="geometry">
            <Array as="points">
              <mxPoint x="680" y="820" />
              <mxPoint x="680" y="980" />
            </Array>
          </mxGeometry>
        </mxCell>
        <mxCell id="46Lw_xT1vmuB0krrrL6Z-152" style="edgeStyle=orthogonalEdgeStyle;rounded=0;orthogonalLoop=1;jettySize=auto;html=1;strokeColor=#000000;" edge="1" parent="1" source="46Lw_xT1vmuB0krrrL6Z-150" target="46Lw_xT1vmuB0krrrL6Z-25">
          <mxGeometry relative="1" as="geometry" />
        </mxCell>
        <mxCell id="46Lw_xT1vmuB0krrrL6Z-153" value="Hit &quot;Save&quot;" style="edgeLabel;html=1;align=center;verticalAlign=middle;resizable=0;points=[];" vertex="1" connectable="0" parent="46Lw_xT1vmuB0krrrL6Z-152">
          <mxGeometry x="-0.1771" relative="1" as="geometry">
            <mxPoint y="-9.2" as="offset" />
          </mxGeometry>
        </mxCell>
        <mxCell id="46Lw_xT1vmuB0krrrL6Z-150" value="&lt;font face=&quot;Inconsolata&quot;&gt;User edits&lt;br&gt;playlist&lt;/font&gt;" style="html=1;strokeWidth=1;shape=manualInput;whiteSpace=wrap;rounded=0;size=26;arcSize=11;fillColor=#FFFFFF;" vertex="1" parent="1">
          <mxGeometry x="960" y="920" width="120" height="80" as="geometry" />
        </mxCell>
        <mxCell id="46Lw_xT1vmuB0krrrL6Z-176" style="edgeStyle=orthogonalEdgeStyle;rounded=0;orthogonalLoop=1;jettySize=auto;html=1;strokeColor=#000000;" edge="1" parent="1" source="46Lw_xT1vmuB0krrrL6Z-25" target="46Lw_xT1vmuB0krrrL6Z-173">
          <mxGeometry relative="1" as="geometry" />
        </mxCell>
        <mxCell id="46Lw_xT1vmuB0krrrL6Z-178" value="Success&lt;br&gt;or&lt;br&gt;failure" style="edgeLabel;html=1;align=center;verticalAlign=middle;resizable=0;points=[];" vertex="1" connectable="0" parent="46Lw_xT1vmuB0krrrL6Z-176">
          <mxGeometry x="-0.0464" relative="1" as="geometry">
            <mxPoint as="offset" />
          </mxGeometry>
        </mxCell>
        <mxCell id="46Lw_xT1vmuB0krrrL6Z-25" value="&lt;span style=&quot;font-weight: normal ; font-size: 12px&quot;&gt;&lt;font data-font-src=&quot;https://fonts.googleapis.com/css?family=Inconsolata&quot; face=&quot;Inconsolata&quot; style=&quot;font-size: 12px&quot;&gt;saveToPlaylist()&lt;br&gt;&lt;/font&gt;&lt;/span&gt;" style="whiteSpace=wrap;html=1;fontSize=12;align=center;fontStyle=1;" vertex="1" parent="1">
          <mxGeometry x="960" y="1120" width="120" height="40" as="geometry" />
        </mxCell>
        <mxCell id="46Lw_xT1vmuB0krrrL6Z-154" value="spotify" style="whiteSpace=wrap;html=1;fontSize=20;align=center;fontStyle=1;fontColor=#FFFFFF;fillColor=#000000;" vertex="1" parent="1">
          <mxGeometry x="960" y="1080" width="120" height="40" as="geometry" />
        </mxCell>
        <mxCell id="46Lw_xT1vmuB0krrrL6Z-155" value="&lt;font face=&quot;Inconsolata&quot;&gt;&lt;span style=&quot;font-weight: normal&quot;&gt;result()&lt;/span&gt;&lt;/font&gt;" style="whiteSpace=wrap;html=1;fontSize=12;align=center;fontStyle=1;" vertex="1" parent="1">
          <mxGeometry x="480" y="840" width="160" height="40" as="geometry" />
        </mxCell>
        <mxCell id="46Lw_xT1vmuB0krrrL6Z-158" value="" style="group" vertex="1" connectable="0" parent="1">
          <mxGeometry x="1160" y="680" width="120" height="80" as="geometry" />
        </mxCell>
        <mxCell id="46Lw_xT1vmuB0krrrL6Z-159" value="router" style="whiteSpace=wrap;html=1;fontSize=20;align=center;fontStyle=1;fontColor=#FFFFFF;fillColor=#808080;strokeColor=#808080;dashed=1;" vertex="1" parent="46Lw_xT1vmuB0krrrL6Z-158">
          <mxGeometry width="120" height="40" as="geometry" />
        </mxCell>
        <mxCell id="46Lw_xT1vmuB0krrrL6Z-160" value="&lt;span style=&quot;font-weight: normal ; font-size: 12px&quot;&gt;&lt;font data-font-src=&quot;https://fonts.googleapis.com/css?family=Inconsolata&quot; face=&quot;Inconsolata&quot; style=&quot;font-size: 12px&quot; color=&quot;#808080&quot;&gt;navigate()&lt;/font&gt;&lt;/span&gt;" style="whiteSpace=wrap;html=1;fontSize=12;align=center;fontStyle=1;dashed=1;strokeColor=#808080;" vertex="1" parent="46Lw_xT1vmuB0krrrL6Z-158">
          <mxGeometry y="40" width="120" height="40" as="geometry" />
        </mxCell>
        <mxCell id="46Lw_xT1vmuB0krrrL6Z-161" value="&lt;font color=&quot;#ffffff&quot;&gt;&lt;span&gt;Go to&lt;br&gt;listFavouriteTracks&lt;br&gt;&lt;/span&gt;&lt;/font&gt;" style="rounded=1;whiteSpace=wrap;html=1;strokeColor=#808080;dashed=1;fillColor=#808080;" vertex="1" parent="1">
          <mxGeometry x="1360" y="720" width="120" height="40" as="geometry" />
        </mxCell>
        <mxCell id="46Lw_xT1vmuB0krrrL6Z-162" style="edgeStyle=orthogonalEdgeStyle;rounded=0;orthogonalLoop=1;jettySize=auto;html=1;strokeColor=#808080;dashed=1;" edge="1" source="46Lw_xT1vmuB0krrrL6Z-160" target="46Lw_xT1vmuB0krrrL6Z-161" parent="1">
          <mxGeometry relative="1" as="geometry" />
        </mxCell>
        <mxCell id="46Lw_xT1vmuB0krrrL6Z-163" style="edgeStyle=orthogonalEdgeStyle;rounded=0;orthogonalLoop=1;jettySize=auto;html=1;strokeColor=#000000;" edge="1" parent="1" source="46Lw_xT1vmuB0krrrL6Z-26" target="46Lw_xT1vmuB0krrrL6Z-160">
          <mxGeometry relative="1" as="geometry" />
        </mxCell>
        <mxCell id="46Lw_xT1vmuB0krrrL6Z-164" value="" style="group" vertex="1" connectable="0" parent="1">
          <mxGeometry x="1160" y="800" width="120" height="80" as="geometry" />
        </mxCell>
        <mxCell id="46Lw_xT1vmuB0krrrL6Z-165" value="router" style="whiteSpace=wrap;html=1;fontSize=20;align=center;fontStyle=1;fontColor=#FFFFFF;fillColor=#808080;strokeColor=#808080;dashed=1;" vertex="1" parent="46Lw_xT1vmuB0krrrL6Z-164">
          <mxGeometry width="120" height="40" as="geometry" />
        </mxCell>
        <mxCell id="46Lw_xT1vmuB0krrrL6Z-166" value="&lt;span style=&quot;font-weight: normal ; font-size: 12px&quot;&gt;&lt;font data-font-src=&quot;https://fonts.googleapis.com/css?family=Inconsolata&quot; face=&quot;Inconsolata&quot; style=&quot;font-size: 12px&quot; color=&quot;#808080&quot;&gt;navigate()&lt;/font&gt;&lt;/span&gt;" style="whiteSpace=wrap;html=1;fontSize=12;align=center;fontStyle=1;dashed=1;strokeColor=#808080;" vertex="1" parent="46Lw_xT1vmuB0krrrL6Z-164">
          <mxGeometry y="40" width="120" height="40" as="geometry" />
        </mxCell>
        <mxCell id="46Lw_xT1vmuB0krrrL6Z-167" value="&lt;font color=&quot;#ffffff&quot;&gt;&lt;span&gt;Go to generate&lt;br&gt;&lt;/span&gt;&lt;/font&gt;" style="rounded=1;whiteSpace=wrap;html=1;strokeColor=#808080;dashed=1;fillColor=#808080;" vertex="1" parent="1">
          <mxGeometry x="1360" y="840" width="80" height="40" as="geometry" />
        </mxCell>
        <mxCell id="46Lw_xT1vmuB0krrrL6Z-168" style="edgeStyle=orthogonalEdgeStyle;rounded=0;orthogonalLoop=1;jettySize=auto;html=1;strokeColor=#808080;dashed=1;" edge="1" source="46Lw_xT1vmuB0krrrL6Z-166" target="46Lw_xT1vmuB0krrrL6Z-167" parent="1">
          <mxGeometry relative="1" as="geometry" />
        </mxCell>
        <mxCell id="46Lw_xT1vmuB0krrrL6Z-171" value="" style="group" vertex="1" connectable="0" parent="1">
          <mxGeometry x="1160" y="1080" width="120" height="80" as="geometry" />
        </mxCell>
        <mxCell id="46Lw_xT1vmuB0krrrL6Z-172" value="router" style="whiteSpace=wrap;html=1;fontSize=20;align=center;fontStyle=1;fontColor=#FFFFFF;fillColor=#808080;strokeColor=#808080;dashed=1;" vertex="1" parent="46Lw_xT1vmuB0krrrL6Z-171">
          <mxGeometry width="120" height="40" as="geometry" />
        </mxCell>
        <mxCell id="46Lw_xT1vmuB0krrrL6Z-173" value="&lt;span style=&quot;font-weight: normal ; font-size: 12px&quot;&gt;&lt;font data-font-src=&quot;https://fonts.googleapis.com/css?family=Inconsolata&quot; face=&quot;Inconsolata&quot; style=&quot;font-size: 12px&quot; color=&quot;#808080&quot;&gt;navigate()&lt;/font&gt;&lt;/span&gt;" style="whiteSpace=wrap;html=1;fontSize=12;align=center;fontStyle=1;dashed=1;strokeColor=#808080;" vertex="1" parent="46Lw_xT1vmuB0krrrL6Z-171">
          <mxGeometry y="40" width="120" height="40" as="geometry" />
        </mxCell>
        <mxCell id="46Lw_xT1vmuB0krrrL6Z-174" value="&lt;font color=&quot;#ffffff&quot;&gt;&lt;span&gt;Go to result&lt;br&gt;&lt;/span&gt;&lt;/font&gt;" style="rounded=1;whiteSpace=wrap;html=1;strokeColor=#808080;dashed=1;fillColor=#808080;" vertex="1" parent="1">
          <mxGeometry x="1360" y="1120" width="80" height="40" as="geometry" />
        </mxCell>
        <mxCell id="46Lw_xT1vmuB0krrrL6Z-175" style="edgeStyle=orthogonalEdgeStyle;rounded=0;orthogonalLoop=1;jettySize=auto;html=1;strokeColor=#808080;dashed=1;" edge="1" source="46Lw_xT1vmuB0krrrL6Z-173" target="46Lw_xT1vmuB0krrrL6Z-174" parent="1">
          <mxGeometry relative="1" as="geometry" />
        </mxCell>
      </root>
    </mxGraphModel>
  </diagram>
</mxfile>
